<svg width="25" height="25" viewBox="0 0 25 25" fill="none" xmlns="http://www.w3.org/2000/svg">
<path d="M12.5 0C19.403 0 25 5.59687 25 12.5C25 19.4032 19.4031 25 12.5 25C5.59696 25 0 19.4031 0 12.5C0 5.59696 5.5961 0 12.5 0Z" fill="white"/>
<path d="M16.8136 5.4668H8.18478C6.68556 5.4668 5.4668 6.68634 5.4668 8.18478V16.8145C5.4668 18.3137 6.68634 19.5325 8.18478 19.5325H16.8145C18.3137 19.5325 19.5325 18.3129 19.5325 16.8145V8.18478C19.5324 6.68634 18.3129 5.4668 16.8136 5.4668ZM17.6699 7.03947L17.9777 7.0387V9.37308L15.6262 9.38089L15.6184 7.04651C15.6184 7.04651 17.6699 7.03947 17.6699 7.03947ZM12.4996 10.1465C14.4504 10.1465 14.8527 11.9777 14.8527 12.5003C14.8527 13.7964 13.7965 14.8526 12.4996 14.8526C11.202 14.8526 10.1465 13.7964 10.1465 12.5003C10.1457 11.9777 10.5489 10.1465 12.4996 10.1465ZM17.991 16.6441C17.991 17.3871 17.3871 17.9918 16.6426 17.9918H8.33007C7.58629 17.9918 6.98163 17.3879 6.98163 16.6441V10.934H8.93473C8.75349 11.3801 8.65111 11.9895 8.65111 12.5004C8.65111 14.6208 10.3761 16.3465 12.4972 16.3465C14.6184 16.3465 16.3425 14.6208 16.3425 12.5004C16.3425 11.9895 16.2401 11.3801 16.0597 10.934H17.9893V16.6441H17.991Z" fill="#00ADEE"/>
</svg>
