<svg width="40" height="40" viewBox="0 0 40 40" fill="none" xmlns="http://www.w3.org/2000/svg">
<path d="M26.667 18.333C29.4337 18.333 31.6503 16.0997 31.6503 13.333C31.6503 10.5663 29.4337 8.33301 26.667 8.33301C23.9003 8.33301 21.667 10.5663 21.667 13.333C21.667 16.0997 23.9003 18.333 26.667 18.333ZM13.3337 18.333C16.1003 18.333 18.317 16.0997 18.317 13.333C18.317 10.5663 16.1003 8.33301 13.3337 8.33301C10.567 8.33301 8.33366 10.5663 8.33366 13.333C8.33366 16.0997 10.567 18.333 13.3337 18.333ZM13.3337 21.6663C9.45033 21.6663 1.66699 23.6163 1.66699 27.4997V31.6663H25.0003V27.4997C25.0003 23.6163 17.217 21.6663 13.3337 21.6663ZM26.667 21.6663C26.1837 21.6663 25.6337 21.6997 25.0503 21.7497C26.9837 23.1497 28.3337 25.033 28.3337 27.4997V31.6663H38.3337V27.4997C38.3337 23.6163 30.5503 21.6663 26.667 21.6663Z" fill="white"/>
</svg>
