<svg width="40" height="40" viewBox="0 0 40 40" fill="none" xmlns="http://www.w3.org/2000/svg">
<path d="M4.21642 32.7497L6.44976 33.683V18.633L2.39976 28.3997C1.71643 30.0997 2.53309 32.0497 4.21642 32.7497ZM36.7164 26.583L28.4498 6.63301C27.9331 5.38301 26.7164 4.61634 25.4331 4.58301C24.9998 4.58301 24.5498 4.64967 24.1164 4.83301L11.8331 9.91634C10.5831 10.433 9.81642 11.633 9.78309 12.9163C9.76642 13.3663 9.84976 13.8163 10.0331 14.2497L18.2998 34.1997C18.8164 35.4663 20.0498 36.233 21.3498 36.2497C21.7831 36.2497 22.2164 36.1663 22.6331 35.9997L34.8998 30.9163C36.5998 30.2163 37.4164 28.2663 36.7164 26.583ZM13.1331 14.583C12.2164 14.583 11.4664 13.833 11.4664 12.9163C11.4664 11.9997 12.2164 11.2497 13.1331 11.2497C14.0498 11.2497 14.7998 11.9997 14.7998 12.9163C14.7998 13.833 14.0498 14.583 13.1331 14.583ZM9.79976 32.9163C9.79976 34.7497 11.2998 36.2497 13.1331 36.2497H15.5498L9.79976 22.3497V32.9163Z" fill="white"/>
</svg>
