<svg width="18" height="18" viewBox="0 0 18 18" fill="none" xmlns="http://www.w3.org/2000/svg">
<path fill-rule="evenodd" clip-rule="evenodd" d="M4.62987 0.570904C5.53982 0.193993 6.51509 0 7.5 0C8.48491 0 9.46018 0.193993 10.3701 0.570904C11.2801 0.947814 12.1069 1.50026 12.8033 2.1967C13.4997 2.89314 14.0522 3.71993 14.4291 4.62987C14.806 5.53982 15 6.51509 15 7.5C15 8.48491 14.806 9.46018 14.4291 10.3701C14.1482 11.0482 13.7698 11.6802 13.307 12.2464L17.7803 16.7197C18.0732 17.0126 18.0732 17.4874 17.7803 17.7803C17.4874 18.0732 17.0126 18.0732 16.7197 17.7803L12.2464 13.307C11.6802 13.7698 11.0482 14.1482 10.3701 14.4291C9.46018 14.806 8.48491 15 7.5 15C6.51509 15 5.53982 14.806 4.62987 14.4291C3.71993 14.0522 2.89314 13.4997 2.1967 12.8033C1.50026 12.1069 0.947814 11.2801 0.570903 10.3701C0.193993 9.46018 0 8.48491 0 7.5C0 6.51509 0.193993 5.53982 0.570903 4.62987C0.947814 3.71993 1.50026 2.89314 2.1967 2.1967C2.89314 1.50026 3.71993 0.947814 4.62987 0.570904ZM7.5 1.5C6.71207 1.5 5.93185 1.65519 5.2039 1.95672C4.47595 2.25825 3.81451 2.70021 3.25736 3.25736C2.70021 3.81451 2.25825 4.47595 1.95672 5.2039C1.65519 5.93185 1.5 6.71207 1.5 7.5C1.5 8.28793 1.65519 9.06815 1.95672 9.7961C2.25825 10.5241 2.70021 11.1855 3.25736 11.7426C3.81451 12.2998 4.47595 12.7417 5.2039 13.0433C5.93185 13.3448 6.71207 13.5 7.5 13.5C8.28793 13.5 9.06815 13.3448 9.7961 13.0433C10.5241 12.7418 11.1855 12.2998 11.7426 11.7426C12.2998 11.1855 12.7417 10.5241 13.0433 9.7961C13.3448 9.06815 13.5 8.28793 13.5 7.5C13.5 6.71207 13.3448 5.93185 13.0433 5.2039C12.7417 4.47595 12.2998 3.81451 11.7426 3.25736C11.1855 2.70021 10.5241 2.25825 9.7961 1.95672C9.06815 1.65519 8.28793 1.5 7.5 1.5Z" fill="#A2A2A2"/>
</svg>
