<svg width="14" height="14" viewBox="0 0 14 14" fill="none" xmlns="http://www.w3.org/2000/svg">
<path d="M13.125 14C13.2344 14 13.3438 13.9795 13.4531 13.9385C13.5625 13.8975 13.6582 13.8314 13.7402 13.7402C13.9134 13.5671 14 13.362 14 13.125C14 12.888 13.9134 12.6829 13.7402 12.5098L11.1289 9.89844C11.5208 9.37891 11.8262 8.80469 12.0449 8.17578C12.2637 7.54688 12.373 6.88607 12.373 6.19336C12.373 5.33659 12.2113 4.53223 11.8877 3.78027C11.5641 3.02832 11.1221 2.37207 10.5615 1.81152C10.001 1.25098 9.34473 0.808919 8.59277 0.485352C7.84082 0.161784 7.04102 0 6.19336 0C5.33659 0 4.53223 0.161784 3.78027 0.485352C3.02832 0.808919 2.37207 1.25098 1.81152 1.81152C1.25098 2.37207 0.808919 3.02832 0.485352 3.78027C0.161784 4.53223 0 5.33659 0 6.19336C0 7.04102 0.161784 7.84082 0.485352 8.59277C0.808919 9.34473 1.25098 10.001 1.81152 10.5615C2.37207 11.1221 3.02832 11.5641 3.78027 11.8877C4.53223 12.2113 5.33659 12.373 6.19336 12.373C6.88607 12.373 7.54688 12.2637 8.17578 12.0449C8.80469 11.8262 9.37891 11.5208 9.89844 11.1289L12.5098 13.7402C12.5918 13.8314 12.6875 13.8975 12.7969 13.9385C12.9062 13.9795 13.0156 14 13.125 14ZM6.19336 10.623C5.57357 10.623 4.99479 10.5068 4.45703 10.2744C3.91927 10.042 3.44987 9.72526 3.04883 9.32422C2.64779 8.92318 2.33105 8.45378 2.09863 7.91602C1.86621 7.37826 1.75 6.80404 1.75 6.19336C1.75 5.57357 1.86621 4.99479 2.09863 4.45703C2.33105 3.91927 2.64779 3.44987 3.04883 3.04883C3.44987 2.64779 3.91927 2.33105 4.45703 2.09863C4.99479 1.86621 5.57357 1.75 6.19336 1.75C6.80404 1.75 7.37826 1.86621 7.91602 2.09863C8.45378 2.33105 8.92318 2.64779 9.32422 3.04883C9.72526 3.44987 10.042 3.91927 10.2744 4.45703C10.5068 4.99479 10.623 5.57357 10.623 6.19336C10.623 6.80404 10.5068 7.37826 10.2744 7.91602C10.042 8.45378 9.72526 8.92318 9.32422 9.32422C8.92318 9.72526 8.45378 10.042 7.91602 10.2744C7.37826 10.5068 6.80404 10.623 6.19336 10.623Z" fill="#8F8F8F"/>
</svg>
