<svg width="25" height="25" viewBox="0 0 25 25" fill="none" xmlns="http://www.w3.org/2000/svg">
<path d="M12.5 0C19.4039 0 25 5.59687 25 12.5C25 19.404 19.4039 25 12.5 25C5.59601 25 0 19.4039 0 12.5C0 5.59687 5.5961 0 12.5 0Z" fill="white"/>
<path d="M20.3144 8.42032C19.7684 8.65623 19.1808 8.81482 18.5645 8.88674C19.1942 8.5203 19.677 7.94138 19.9043 7.25004C19.3153 7.58987 18.6637 7.836 17.9692 7.96798C17.4137 7.39378 16.6223 7.03516 15.7457 7.03516C14.0645 7.03516 12.7004 8.35785 12.7004 9.99059C12.7004 10.2226 12.7271 10.4484 12.7793 10.6649C10.2481 10.5414 8.00276 9.36405 6.50123 7.5758C6.23872 8.01252 6.08871 8.51953 6.08871 9.06171C6.08871 10.0867 6.62618 10.9929 7.44341 11.5219C6.94344 11.5063 6.47463 11.3742 6.06296 11.1516V11.1891C6.06296 12.6219 7.11293 13.8165 8.50668 14.0883C8.2512 14.1555 7.98242 14.1923 7.70429 14.1923C7.5082 14.1923 7.3176 14.1743 7.13164 14.1391C7.5191 15.3141 8.64416 16.1688 9.97775 16.1923C8.93482 16.986 7.62148 17.4579 6.19418 17.4579C5.94806 17.4579 5.70588 17.4438 5.4668 17.4166C6.81601 18.2556 8.41606 18.7454 10.1371 18.7454C15.7402 18.7454 18.8043 14.2392 18.8043 10.3329L18.7957 9.95009C19.3894 9.53439 19.9059 9.01409 20.3144 8.42032Z" fill="#00ADEE"/>
</svg>
