<svg width="28" height="28" viewBox="0 0 28 28" fill="none" xmlns="http://www.w3.org/2000/svg">
<g clip-path="url(#clip0_373_37)">
<path d="M16.2298 7.76389C16.2298 6.08001 15.0572 4.75 13.6583 4.75C12.3077 4.75 11.1681 5.98987 11.0911 7.591L11.0869 7.76389V10H9.37263V7.76389C9.37263 5.15222 11.2701 3 13.6583 3C15.9869 3 17.8489 5.04595 17.9405 7.5689L17.9441 7.76389V10H19.5612C20.3786 10 21.0625 10.608 21.1416 11.405L22.2222 22.2939C22.3071 23.149 21.6683 23.9096 20.7954 23.9927C20.7444 23.9976 20.6931 24 20.6418 24H6.67477C5.79782 24 5.08691 23.3036 5.08691 22.4444C5.08691 22.3942 5.0894 22.3439 5.09437 22.2939L6.17499 11.405C6.25409 10.608 6.93796 10 7.7554 10H16.2298V7.76389ZM19.4544 11.75H7.86227L6.8012 22.25H20.5155L19.4544 11.75Z" fill="#1B2437"/>
</g>
<defs>
<clipPath id="clip0_373_37">
<rect width="18" height="21" fill="white" transform="translate(5 3)"/>
</clipPath>
</defs>
</svg>
