<svg width="41" height="40" viewBox="0 0 41 40" fill="none" xmlns="http://www.w3.org/2000/svg">
<path d="M33.833 33.3337H7.16634C6.28229 33.3337 5.43444 32.9825 4.80932 32.3574C4.1842 31.7322 3.83301 30.8844 3.83301 30.0003V9.85533C3.8704 8.99664 4.23802 8.18559 4.85914 7.59149C5.48025 6.9974 6.30684 6.66618 7.16634 6.66699H33.833C34.7171 6.66699 35.5649 7.01818 36.19 7.6433C36.8152 8.26843 37.1663 9.11627 37.1663 10.0003V30.0003C37.1663 30.8844 36.8152 31.7322 36.19 32.3574C35.5649 32.9825 34.7171 33.3337 33.833 33.3337ZM7.16634 13.1137V30.0003H33.833V13.1137L20.4997 22.0003L7.16634 13.1137ZM8.49967 10.0003L20.4997 18.0003L32.4997 10.0003H8.49967Z" fill="black"/>
</svg>
