<svg width="28" height="28" viewBox="0 0 28 28" fill="none" xmlns="http://www.w3.org/2000/svg">
<g clip-path="url(#clip0_374_74)">
<g clip-path="url(#clip1_374_74)">
<path fill-rule="evenodd" clip-rule="evenodd" d="M21.9594 10.7041C21.9218 9.85391 21.7843 9.26945 21.5874 8.763C21.3842 8.22542 21.0715 7.74412 20.6619 7.34402C20.2618 6.93769 19.7772 6.62195 19.2458 6.42196C18.7362 6.22502 18.1547 6.08754 17.3045 6.05006C16.4478 6.0094 16.1758 6 14.0031 6C11.8304 6 11.5584 6.0094 10.705 6.04688C9.85465 6.08437 9.27007 6.22197 8.76365 6.41878C8.22584 6.62195 7.74446 6.93451 7.34427 7.34402C6.93786 7.74412 6.62219 8.22859 6.42204 8.75994C6.22506 9.26945 6.08756 9.85074 6.05007 10.7009C6.0094 11.5574 6 11.8293 6 14.0016C6 16.1739 6.0094 16.4458 6.04689 17.2991C6.08438 18.1493 6.22201 18.7338 6.41899 19.2402C6.62219 19.7778 6.93786 20.259 7.34427 20.6591C7.74446 21.0655 8.22902 21.3812 8.76047 21.5812C9.27007 21.7782 9.85147 21.9156 10.7019 21.9531C11.5553 21.9907 11.8273 22 14.0001 22C16.1728 22 16.4447 21.9907 17.2982 21.9531C18.1486 21.9156 18.7331 21.7782 19.2395 21.5812C20.315 21.1655 21.1654 20.3154 21.5811 19.2402C21.778 18.7306 21.9156 18.1493 21.9531 17.2991C21.9906 16.4458 22 16.1739 22 14.0016C22 11.8293 21.9968 11.5574 21.9594 10.7041ZM20.5182 17.2366C20.4838 18.018 20.3525 18.44 20.2431 18.7213C19.9742 19.4183 19.4209 19.9715 18.7237 20.2404C18.4423 20.3498 18.0173 20.481 17.2387 20.5154C16.3946 20.553 16.1415 20.5622 14.0063 20.5622C11.8711 20.5622 11.6147 20.553 10.7737 20.5154C9.99215 20.481 9.57011 20.3498 9.28875 20.2404C8.94182 20.1122 8.62602 19.909 8.3697 19.6434C8.10397 19.3839 7.90077 19.0713 7.77254 18.7245C7.66312 18.4431 7.53185 18.018 7.49753 17.2398C7.45992 16.3958 7.45064 16.1426 7.45064 14.0078C7.45064 11.873 7.45992 11.6167 7.49753 10.776C7.53185 9.99457 7.66312 9.57261 7.77254 9.2913C7.90077 8.94431 8.10397 8.6287 8.37287 8.3723C8.63225 8.10662 8.94487 7.90346 9.29193 7.77538C9.57329 7.66598 9.9985 7.53473 10.7769 7.5003C11.621 7.46282 11.8742 7.45342 14.0094 7.45342C16.1478 7.45342 16.4009 7.46282 17.2419 7.5003C18.0234 7.53473 18.4455 7.66598 18.7269 7.77538C19.0738 7.90346 19.3896 8.10662 19.6459 8.3723C19.9117 8.63174 20.1149 8.94431 20.2431 9.2913C20.3525 9.57261 20.4838 9.99762 20.5182 10.776C20.5557 11.6199 20.5651 11.873 20.5651 14.0078C20.5651 16.1426 20.5557 16.3927 20.5182 17.2366ZM13.9465 10.2774C11.7678 10.2774 10 12.0451 10 14.224C10 16.4029 11.7678 18.1705 13.9465 18.1705C16.1254 18.1705 17.893 16.4029 17.893 14.224C17.893 12.0451 16.1254 10.2774 13.9465 10.2774ZM13.9465 16.784C12.5331 16.784 11.3865 15.6376 11.3865 14.224C11.3865 12.8104 12.5331 11.664 13.9465 11.664C15.3602 11.664 16.5066 12.8104 16.5066 14.224C16.5066 15.6376 15.3602 16.784 13.9465 16.784ZM18.0491 11.0427C18.558 11.0427 18.9706 10.6301 18.9706 10.1213C18.9706 9.61242 18.558 9.2 18.0491 9.2C17.5403 9.2 17.1278 9.61242 17.1278 10.1213C17.1278 10.6301 17.5403 11.0427 18.0491 11.0427Z" fill="#1B2437"/>
</g>
</g>
<defs>
<clipPath id="clip0_374_74">
<rect width="18" height="21" fill="white" transform="translate(5 3)"/>
</clipPath>
<clipPath id="clip1_374_74">
<rect width="16" height="16" fill="white" transform="translate(6 6)"/>
</clipPath>
</defs>
</svg>
