<svg width="28" height="28" viewBox="0 0 28 28" fill="none" xmlns="http://www.w3.org/2000/svg">
<g clip-path="url(#clip0_374_66)">
<path d="M24.1016 9.65738C23.4322 9.93846 22.7189 10.1248 21.9753 10.2152C22.7403 9.77799 23.3242 9.09092 23.5987 8.26277C22.8854 8.66984 22.0979 8.95738 21.2587 9.11784C20.5814 8.42754 19.6162 8 18.5632 8C16.5202 8 14.8754 9.58738 14.8754 11.5334C14.8754 11.8134 14.9002 12.0826 14.961 12.3389C11.8931 12.1957 9.17844 10.7881 7.35481 8.644C7.03643 9.17276 6.84968 9.77799 6.84968 10.4295C6.84968 11.6529 7.50781 12.7374 8.48881 13.3652C7.89594 13.3544 7.31431 13.1897 6.82156 12.9301C6.82156 12.9409 6.82156 12.9549 6.82156 12.9689C6.82156 14.6855 8.10069 16.1114 9.77806 16.4398C9.47769 16.5184 9.15031 16.5561 8.81056 16.5561C8.57431 16.5561 8.33581 16.5432 8.11194 16.4958C8.59006 17.8948 9.94682 18.9232 11.5601 18.9566C10.3046 19.8968 8.71044 20.4632 6.98468 20.4632C6.68206 20.4632 6.39181 20.4503 6.10156 20.4148C7.73619 21.4238 9.67344 22 11.7626 22C18.5531 22 22.2656 16.6154 22.2656 11.948C22.2656 11.7918 22.2599 11.6411 22.2521 11.4914C22.9844 10.9938 23.5998 10.3725 24.1016 9.65738Z" fill="#1B2437"/>
</g>
<defs>
<clipPath id="clip0_374_66">
<rect width="18" height="14" fill="white" transform="translate(6 8)"/>
</clipPath>
</defs>
</svg>
