<svg width="28" height="28" viewBox="0 0 28 28" fill="none" xmlns="http://www.w3.org/2000/svg">
<path d="M13.4177 17.2511C14.5458 16.4657 15.4032 15.3484 15.8697 14.0529C16.3526 12.7117 16.3909 11.2506 15.979 9.88597C15.567 8.5213 14.7266 7.32551 13.5822 6.47557C12.4378 5.62563 11.0502 5.1667 9.6247 5.1667C8.1992 5.1667 6.81157 5.62563 5.66717 6.47557C4.52276 7.32551 3.6824 8.5213 3.27043 9.88597C2.85846 11.2506 2.89678 12.7117 3.37972 14.0529C3.84622 15.3484 4.70364 16.4657 5.83166 17.2511C3.87345 18.0021 2.18325 19.3216 0.979451 21.0416C0.894187 21.1412 0.830458 21.2574 0.792291 21.3829C0.753746 21.5096 0.742123 21.643 0.758169 21.7745C0.774215 21.9059 0.817575 22.0326 0.885464 22.1463C0.953354 22.2601 1.04427 22.3583 1.15239 22.4348C1.2605 22.5114 1.38342 22.5644 1.51325 22.5906C1.64308 22.6168 1.77695 22.6156 1.90627 22.587C2.0356 22.5584 2.15751 22.5031 2.26419 22.4246C2.36991 22.3468 2.45835 22.2479 2.52394 22.1343C3.32537 20.9967 4.3884 20.0683 5.62353 19.4273C6.85969 18.7857 8.23198 18.4508 9.6247 18.4508C11.0174 18.4508 12.3897 18.7857 13.6259 19.4273C14.861 20.0683 15.924 20.9967 16.7255 22.1343C16.7911 22.2479 16.8795 22.3468 16.9852 22.4246C17.0919 22.5031 17.2138 22.5584 17.3431 22.587C17.4725 22.6156 17.6063 22.6168 17.7362 22.5906C17.866 22.5644 17.9889 22.5114 18.097 22.4348C18.2051 22.3583 18.296 22.2601 18.3639 22.1463C18.4318 22.0326 18.4752 21.9059 18.4912 21.7745C18.5073 21.643 18.4957 21.5096 18.4571 21.3829C18.4189 21.2574 18.3552 21.1412 18.2699 21.0416C17.0662 19.3216 15.3759 18.0021 13.4177 17.2511ZM26.6236 22.5154C26.7448 22.4874 26.8593 22.4355 26.9603 22.3629C27.1657 22.2191 27.3059 21.9999 27.3504 21.7531C27.3949 21.5062 27.3399 21.2516 27.1974 21.0451L27.197 21.0445C25.9863 19.3253 24.2927 18.0056 22.3322 17.2515C23.4638 16.4687 24.3247 15.3522 24.7936 14.0561C25.2791 12.7142 25.3184 11.2514 24.9058 9.8854C24.4931 8.51936 23.6505 7.32303 22.5033 6.47437C21.356 5.6257 19.9655 5.17005 18.5385 5.17519L18.5384 5.17519C17.9298 5.17842 17.3241 5.26016 16.7364 5.41839L16.7364 5.41836L16.7345 5.41893C16.4939 5.49064 16.2909 5.65369 16.1689 5.87319C16.047 6.09269 16.0158 6.35121 16.082 6.59341L16.0823 6.59415C16.1164 6.7143 16.174 6.82652 16.2516 6.9244C16.3292 7.02228 16.4254 7.10388 16.5346 7.16455C16.6438 7.22521 16.7639 7.26375 16.888 7.27794C17.0119 7.29211 17.1373 7.28176 17.2572 7.24748C17.6754 7.13598 18.1062 7.07809 18.539 7.07519C19.7954 7.07525 21.0003 7.57437 21.8887 8.46277C22.7771 9.35122 23.2763 10.5562 23.2763 11.8127C23.2763 13.0691 22.7771 14.2741 21.8887 15.1626C21.0002 16.0511 19.7952 16.5502 18.5388 16.5502C18.2868 16.5502 18.0452 16.6503 17.867 16.8284C17.6888 17.0066 17.5888 17.2482 17.5888 17.5002C17.5888 17.7521 17.6888 17.9938 17.867 18.1719C18.0452 18.3501 18.2868 18.4502 18.5387 18.4502C19.9313 18.4512 21.3034 18.7866 22.5394 19.4282C23.7754 20.0697 24.8392 20.9988 25.6415 22.1371C25.7126 22.2392 25.8033 22.3262 25.9083 22.393C26.0135 22.4598 26.1309 22.505 26.2537 22.5261C26.3765 22.5471 26.5022 22.5435 26.6236 22.5154ZM4.8872 11.8127C4.8872 10.8757 5.16505 9.95975 5.68562 9.18067C6.20618 8.40159 6.94607 7.79438 7.81174 7.43581C8.6774 7.07724 9.62996 6.98342 10.5489 7.16622C11.4679 7.34901 12.3121 7.80022 12.9746 8.46277C13.6372 9.12532 14.0884 9.96946 14.2712 10.8884C14.454 11.8074 14.3601 12.76 14.0016 13.6256C13.643 14.4913 13.0358 15.2312 12.2567 15.7518C11.4776 16.2723 10.5617 16.5502 9.6247 16.5502C8.36824 16.5502 7.16324 16.0511 6.27478 15.1626C5.38633 14.2741 4.8872 13.0691 4.8872 11.8127Z" fill="#1B2437" stroke="#1B2437" stroke-width="0.15"/>
</svg>
