<svg width="1440" height="1123" viewBox="0 0 1440 1123" fill="none" xmlns="http://www.w3.org/2000/svg">
<g clip-path="url(#clip0_815_5)">
<path opacity="0.5" d="M741.343 48.6942C621.405 149.217 602.819 339.298 521.589 479.527C493.312 528.322 456.775 571.992 437.712 626.123C393.946 750.026 454.18 890.572 534.801 988.981C573.245 1035.93 618.149 1078.94 672.478 1098.72C714.258 1113.94 759.056 1114.57 803.033 1114.97L1573.5 1122.9C1659.52 1123.77 1755.1 1120.62 1816.95 1054.21C1859.57 1008.48 1876.89 941.692 1891.58 877.944C1909.64 799.613 1926 714.546 1897.91 639.94C1865.82 554.582 1784.67 506.21 1734.26 432.555C1652.45 313.223 1654.33 132.731 1550.14 37.4664C1501.51 -6.99593 1437.33 -24.4321 1374.79 -33.1502C1256.89 -49.6089 1145.21 -18.5408 1029.43 -22.8734C930.464 -26.572 823.447 -20.1259 741.343 48.6942Z" fill="#E7ECFF"/>
<path opacity="0.24" d="M982.785 944.613C936.336 949.283 888.461 954.419 847.588 977.264C842.117 980.328 836.563 983.942 833.544 989.458C827.487 1000.55 834.362 1015.18 845.031 1021.86C855.7 1028.53 868.863 1029.29 881.419 1029.84C1104.99 1039.59 1328.89 1035.76 1552.64 1031.96C1617.62 1030.86 1683.63 1029.59 1745.9 1010.72C1757.09 1007.34 1769.4 1002.26 1773.61 991.212C1779.12 976.757 1766.55 960.737 1751.88 956.236C1737.2 951.735 1721.55 955.095 1706.37 957.06C1653.67 963.886 1600.52 953.446 1548.05 945.099C1445.35 928.784 1338.78 915.512 1234.75 913.039C1199.29 912.215 1169 924.515 1134.29 929.376C1084.17 936.434 1033.17 939.541 982.785 944.613Z" fill="#505F98"/>
<path d="M800.076 511.326L915.906 275.408L984.892 309.19L869.063 545.108L800.076 511.326Z" fill="white"/>
<path d="M826.922 504.056L841.035 475.221L887.499 497.903L873.386 526.738L826.922 504.056Z" fill="#505F98"/>
<path d="M826.922 504.056L841.035 475.221L887.499 497.903L873.386 526.738L826.922 504.056Z" fill="url(#paint0_linear_815_5)"/>
<path d="M841.037 475.445L855.151 446.61L901.615 469.293L887.501 498.128L841.037 475.445Z" fill="#505F98"/>
<path d="M841.037 475.445L855.151 446.61L901.615 469.293L887.501 498.128L841.037 475.445Z" fill="url(#paint1_linear_815_5)"/>
<path d="M855.133 446.826L869.246 417.991L915.71 440.674L901.597 469.509L855.133 446.826Z" fill="#505F98"/>
<path d="M855.133 446.826L869.246 417.991L915.71 440.674L901.597 469.509L855.133 446.826Z" fill="url(#paint2_linear_815_5)"/>
<path d="M869.27 418.237L883.383 389.402L929.847 412.085L915.734 440.92L869.27 418.237Z" fill="#505F98"/>
<path d="M869.27 418.237L883.383 389.402L929.847 412.085L915.734 440.92L869.27 418.237Z" fill="url(#paint3_linear_815_5)"/>
<path d="M883.375 389.6L897.488 360.765L943.953 383.447L929.839 412.282L883.375 389.6Z" fill="#505F98"/>
<path d="M897.492 361.011L911.606 332.176L958.07 354.858L943.956 383.693L897.492 361.011Z" fill="#505F98"/>
<path d="M911.588 332.392L925.701 303.557L972.166 326.239L958.052 355.074L911.588 332.392Z" fill="#505F98"/>
<path d="M895.904 364.599L910.018 335.764L956.482 358.446L942.368 387.281L895.904 364.599Z" fill="url(#paint4_linear_815_5)"/>
<path d="M910.027 335.97L924.141 307.135L970.605 329.817L956.491 358.652L910.027 335.97Z" fill="url(#paint5_linear_815_5)"/>
<rect x="1210.54" y="829" width="98.0679" height="82" fill="#505F98"/>
<rect x="1210.54" y="829" width="98.0679" height="82" fill="url(#paint6_linear_815_5)"/>
<rect x="1002.4" y="487" width="518.359" height="355" rx="9.37" fill="#505F98"/>
<path opacity="0.65" d="M1503.75 516.438V810.562C1503.76 815.443 1501.84 820.129 1498.4 823.588C1494.96 827.047 1490.29 828.994 1485.41 829H1033.75C1028.87 828.989 1024.2 827.04 1020.76 823.582C1017.32 820.125 1015.4 815.441 1015.41 810.562V516.438C1015.4 511.559 1017.32 506.875 1020.76 503.418C1024.2 499.96 1028.87 498.011 1033.75 498H1485.41C1490.29 498.006 1494.96 499.953 1498.4 503.412C1501.84 506.871 1503.76 511.557 1503.75 516.438V516.438Z" fill="url(#paint7_linear_815_5)"/>
<rect x="1165.51" y="901" width="206.143" height="21" fill="#505F98"/>
<rect x="1210.54" y="889" width="98.0679" height="12" fill="url(#paint8_linear_815_5)"/>
<path fill-rule="evenodd" clip-rule="evenodd" d="M1365.65 315.241V335.715L1352.94 335.819C1351.71 345.346 1348.08 354.41 1342.41 362.181L1353.26 373.351L1338.38 387.6L1327.69 376.578C1321.11 381.062 1313.67 384.17 1305.84 385.714V399H1285.27V386.029C1276.48 384.76 1268.11 381.497 1260.8 376.494L1251.86 385.316L1237.3 370.647L1246.17 361.993C1240.58 354.219 1237.02 345.191 1235.8 335.715H1221.55V315.241H1236.31C1238.14 307.093 1241.73 299.441 1246.84 292.819L1238.6 284.332L1253.48 270.082L1261.91 278.82C1268.88 274.214 1276.81 271.228 1285.1 270.082V256H1305.67V270.396C1314.04 272.055 1321.95 275.493 1328.85 280.476L1339.39 270.166L1353.87 284.709L1343.33 295.187C1347.46 301.267 1350.4 308.073 1351.97 315.241H1365.65ZM1259.51 328.149C1259.49 347.211 1275.01 362.682 1294.18 362.705C1303.39 362.733 1312.24 359.113 1318.76 352.644C1325.28 346.176 1328.94 337.392 1328.94 328.233C1328.96 309.172 1313.44 293.701 1294.27 293.678C1275.1 293.655 1259.54 309.088 1259.51 328.149Z" fill="#505F98"/>
<path fill-rule="evenodd" clip-rule="evenodd" d="M1441.71 349.354L1440.79 361.396L1433.27 360.938C1432.15 366.475 1429.64 371.641 1425.99 375.958L1431.86 383.021L1422.51 390.729L1416.75 383.792C1412.69 386.13 1408.21 387.625 1403.56 388.188L1402.95 396L1390.91 395.104L1391.5 387.479C1386.41 386.344 1381.66 384.056 1377.6 380.792L1371.96 385.583L1364.1 376.396L1369.67 371.688C1366.74 366.876 1365.05 361.414 1364.76 355.792L1356.65 355.167L1357.54 343.146L1366.16 343.792C1367.59 339.085 1370.01 334.743 1373.28 331.062L1368.83 325.708L1378.18 318L1382.71 323.5C1386.98 321.095 1391.74 319.672 1396.63 319.333L1397.26 311L1409.3 311.896L1408.65 320.375C1413.46 321.714 1417.91 324.081 1421.71 327.312L1428.33 321.708L1436.18 330.896L1429.5 336.583C1431.66 340.339 1433.08 344.477 1433.67 348.771L1441.71 349.354ZM1379.01 352.242C1378.15 363.435 1386.55 373.202 1397.76 374.062C1403.15 374.487 1408.49 372.747 1412.6 369.227C1416.7 365.708 1419.23 360.7 1419.63 355.312C1420.47 344.118 1412.07 334.36 1400.85 333.513C1389.64 332.666 1379.86 341.049 1379.01 352.242Z" fill="#505F98"/>
<path d="M1503.75 516.513V523H1015.41V516.513C1015.4 511.614 1017.32 506.912 1020.76 503.44C1024.2 499.968 1028.87 498.011 1033.75 498H1485.41C1490.29 498.006 1494.96 499.961 1498.4 503.434C1501.84 506.907 1503.76 511.613 1503.75 516.513V516.513Z" fill="url(#paint9_linear_815_5)"/>
<rect x="1025.42" y="555" width="47.0326" height="227" fill="url(#paint10_linear_815_5)"/>
<rect x="1143.5" y="571" width="221.153" height="209" fill="url(#paint11_linear_815_5)"/>
<rect x="1194.53" y="669" width="7.00485" height="9" fill="url(#paint12_linear_815_5)"/>
<rect x="1194.53" y="627" width="7.00485" height="9" fill="url(#paint13_linear_815_5)"/>
<rect x="1099.47" y="669" width="7.00485" height="9" fill="url(#paint14_linear_815_5)"/>
<rect x="1099.47" y="627" width="7.00485" height="9" fill="url(#paint15_linear_815_5)"/>
<rect x="1194.53" y="582" width="7.00485" height="9" fill="url(#paint16_linear_815_5)"/>
<rect x="1100.47" y="582" width="7.00485" height="9" fill="url(#paint17_linear_815_5)"/>
<rect x="1148.5" y="582" width="7.00485" height="9" fill="url(#paint18_linear_815_5)"/>
<rect x="1148.5" y="669" width="7.00485" height="9" fill="url(#paint19_linear_815_5)"/>
<path fill-rule="evenodd" clip-rule="evenodd" d="M1112.48 667H1190.53V594H1112.48V667ZM1182.67 659.282H1120.34V601.656H1182.67V659.282Z" fill="#505F98"/>
<path fill-rule="evenodd" clip-rule="evenodd" d="M1112.48 667H1190.53V594H1112.48V667ZM1182.67 659.282H1120.34V601.656H1182.67V659.282Z" fill="url(#paint20_linear_815_5)"/>
<rect x="1396.67" y="535" width="100.069" height="100" fill="url(#paint21_linear_815_5)"/>
<rect x="1396.67" y="645" width="100.069" height="100" fill="url(#paint22_linear_815_5)"/>
<rect opacity="0.65" x="1025.42" y="554" width="47.0326" height="13" fill="url(#paint23_linear_815_5)"/>
<path d="M822.381 485.826L1027.51 321.292L1075.62 381.117L870.493 545.651L822.381 485.826Z" fill="white"/>
<path d="M851.104 490.455L876.171 470.235L908.753 510.522L883.686 530.742L851.104 490.455Z" fill="#505F98"/>
<path d="M851.104 490.455L876.171 470.235L908.753 510.522L883.686 530.742L851.104 490.455Z" fill="url(#paint24_linear_815_5)"/>
<path d="M874.723 470.688L899.755 450.56L932.19 490.79L907.158 510.919L874.723 470.688Z" fill="#505F98"/>
<path d="M874.723 470.688L899.755 450.56L932.19 490.79L907.158 510.919L874.723 470.688Z" fill="url(#paint25_linear_815_5)"/>
<path d="M899.666 450.761L924.698 430.632L957.133 470.862L932.101 490.991L899.666 450.761Z" fill="#505F98"/>
<path d="M899.666 450.761L924.698 430.632L957.133 470.862L932.101 490.991L899.666 450.761Z" fill="url(#paint26_linear_815_5)"/>
<path d="M924.594 430.847L949.626 410.718L982.061 450.948L957.029 471.077L924.594 430.847Z" fill="#505F98"/>
<path d="M924.594 430.847L949.626 410.718L982.061 450.948L957.029 471.077L924.594 430.847Z" fill="url(#paint27_linear_815_5)"/>
<path d="M950.713 410.39L975.78 390.169L1008.36 430.457L983.295 450.677L950.713 410.39Z" fill="#505F98"/>
<path d="M975.793 389.99L1000.86 369.77L1033.44 410.057L1008.38 430.277L975.793 389.99Z" fill="#505F98"/>
<path d="M999.4 371.051L1024.43 350.922L1056.87 391.152L1031.84 411.281L999.4 371.051Z" fill="#505F98"/>
<path d="M1029.42 414.218L1008.32 431L976.383 390.782L997.482 374L1029.42 414.218V414.218Z" fill="url(#paint28_linear_815_5)"/>
<path d="M996.443 373.647L1021.48 353.519L1053.91 393.749L1028.88 413.878L996.443 373.647Z" fill="url(#paint29_linear_815_5)"/>
<path d="M945.36 495.15V618H924.346V495.15C924.346 490.61 927.164 486.57 931.364 485.089V472.825C931.364 470.712 933.04 469 935.107 469C937.175 469 938.85 470.712 938.85 472.825V485.297C942.77 486.935 945.338 490.823 945.36 495.15V495.15Z" fill="#505F98"/>
<path d="M945.36 495.15V618H924.346V495.15C924.346 490.61 927.164 486.57 931.364 485.089V472.825C931.364 470.712 933.04 469 935.107 469C937.175 469 938.85 470.712 938.85 472.825V485.297C942.77 486.935 945.338 490.823 945.36 495.15V495.15Z" fill="url(#paint30_linear_815_5)"/>
<rect x="911.338" y="573" width="50.0346" height="9" rx="2.245" fill="#505F98"/>
<path d="M936.043 655V655C927.47 655 920.344 642.185 920.344 633.634V577H951.365V633.634C951.365 642.185 944.595 655 936.043 655Z" fill="#505F98"/>
<rect x="911.338" y="573" width="50.0346" height="9" rx="2.245" fill="url(#paint31_linear_815_5)"/>
<path d="M936.043 655V655C927.47 655 920.344 642.366 920.344 633.937V582H951.365V633.937C951.365 642.366 944.595 655 936.043 655Z" fill="url(#paint32_linear_815_5)"/>
<path d="M1136.13 715C1135.46 711.436 1135.04 706.39 1136.33 706.043C1139.06 705.275 1136.13 715 1136.13 715Z" fill="#28353D"/>
<path d="M1279.39 910.507C1278.91 923.102 1269.15 969.388 1268.83 982.004C1268.83 986.202 1269.95 992.647 1268.6 996.698C1265.81 1005.28 1255.92 1004.11 1254.63 999.049L1254.14 996.53C1249.56 972.012 1256.93 944.198 1254.14 912.186C1252.47 892.643 1244.7 854.963 1239.61 854.711C1236.92 854.711 1175.66 983.851 1170.34 991.807C1167.72 995.817 1160.34 995.187 1156.77 998.42C1153.2 1001.65 1186.53 900.515 1200.49 847.07C1203.75 836.039 1205.87 824.709 1206.83 813.252C1207.21 806.64 1205.08 804.415 1211.19 802.463C1215.41 801.119 1221.26 801.497 1225.79 801.182C1230.71 800.804 1276.5 800.72 1276.5 803.953C1276.06 821.502 1280.58 881.412 1279.39 910.507Z" fill="#606161"/>
<path d="M1279.39 910.507C1278.91 923.102 1269.15 969.388 1268.83 982.004C1268.83 986.202 1269.95 992.647 1268.6 996.698C1265.81 1005.28 1255.92 1004.11 1254.63 999.049L1254.14 996.53C1249.56 972.012 1256.93 944.198 1254.14 912.186C1252.47 892.643 1244.7 854.963 1239.61 854.711C1236.92 854.711 1175.66 983.851 1170.34 991.807C1167.72 995.817 1160.34 995.187 1156.77 998.42C1153.2 1001.65 1186.53 900.515 1200.49 847.07C1203.75 836.039 1205.87 824.709 1206.83 813.252C1207.21 806.64 1205.08 804.415 1211.19 802.463C1215.41 801.119 1221.26 801.497 1225.79 801.182C1230.71 800.804 1276.5 800.72 1276.5 803.953C1276.06 821.502 1280.58 881.412 1279.39 910.507Z" fill="url(#paint33_linear_815_5)"/>
<path d="M1225.32 642.148C1224.94 638.163 1223.05 636 1221.21 636C1219.37 636 1218.24 638.12 1218.63 642.148C1218.71 645.122 1220.96 647.597 1223.93 648C1225.79 648 1225.73 646.134 1225.32 642.148Z" fill="#FFCD9C"/>
<path d="M1257.71 642.159C1257.96 638.166 1259.8 636 1261.7 636C1263.6 636 1264.83 638.124 1264.54 642.159C1264.51 645.173 1262.27 647.687 1259.32 648C1257.44 648 1257.42 646.152 1257.71 642.159Z" fill="#FFCD9C"/>
<path d="M1261.44 659.672C1261.18 661.777 1252.27 671 1242.12 671C1231.98 671 1223.6 662.577 1221.83 659.208C1220.06 655.839 1227.18 612.505 1231.31 608.884C1235.43 605.262 1252.14 607.641 1253.54 609.558C1256.91 614.085 1262.54 651.27 1261.44 659.672Z" fill="#F4AD7D"/>
<path d="M1257.24 626.977C1255.87 627.639 1250.45 613.842 1249.31 611.525C1248.18 609.208 1248.36 606.829 1249.74 606.167C1251.12 605.505 1253.15 606.871 1254.28 609.167C1255.42 611.463 1258.6 626.336 1257.24 626.977Z" fill="#FFCD9C"/>
<path d="M1226.87 625.987C1225.44 625.501 1229.23 611.179 1230.06 608.703C1230.88 606.228 1232.74 604.599 1234.09 605.086C1235.44 605.573 1236 607.984 1235.18 610.481C1234.35 612.977 1228.22 626.474 1226.87 625.987Z" fill="#FFCD9C"/>
<path d="M1232.55 658H1254.32L1257.58 678.622C1245.72 685.005 1238.81 684.301 1229.56 677.214L1232.55 658Z" fill="#F4AD7D"/>
<path d="M1241.57 662.13C1241.57 661.75 1242.47 661.43 1243.57 661.43C1244.66 661.43 1245.57 661.75 1245.57 662.13C1245.57 662.51 1244.69 662.57 1243.57 662.57C1242.45 662.57 1241.57 662.53 1241.57 662.13Z" fill="#F4AD7D"/>
<path d="M1262.6 652.808C1263.42 647.894 1264.77 612.708 1261.47 608.051C1258.18 603.394 1238.45 600.381 1235.46 601.108C1228.76 602.731 1229.93 607.517 1229.93 607.517C1227.94 607.547 1225.99 608.084 1224.27 609.076C1221.97 610.615 1217.14 632.79 1221 649.56C1222.73 657.102 1229.56 663.66 1241.35 663.981C1255.88 664.365 1261.6 658.896 1262.6 652.808Z" fill="#606161"/>
<path d="M1235.54 602.762C1237.1 601.448 1239.12 600.828 1241.14 601.041C1247.27 601.008 1253.35 602.14 1259.07 604.376C1262.24 605.488 1265.12 607.311 1267.49 609.708C1269.88 612.173 1270.98 615.627 1270.46 619.034C1269.41 624.047 1264.15 627.148 1262.42 631.97C1261.03 635.837 1262.02 639.575 1262.06 643.463C1262.09 646.606 1261.86 649.746 1261.39 652.852C1260.42 658.906 1254.88 664.344 1240.67 663.983C1229.22 663.664 1222.59 657.143 1220.91 649.644C1218.63 637.198 1219.23 624.389 1222.66 612.215C1228.83 613.648 1235.14 614.361 1241.47 614.339C1248.19 614.395 1254.89 613.611 1261.41 612.002C1262.52 618.503 1262.5 631.524 1262.15 641.253" fill="#606161"/>
<path d="M1200.41 674.954C1196.98 675.241 1193.67 676.384 1190.78 678.28C1185.85 682.171 1185.47 689.43 1185.56 695.748C1185.39 704.501 1185.99 713.252 1187.37 721.897C1188.85 729.826 1191.53 737.441 1193.74 745.202C1197.22 757.831 1199.05 770.862 1199.18 783.966C1199.18 791.162 1199.06 799.07 1203.53 804.697C1208.43 810.806 1217.1 811.998 1224.89 812.438C1235.95 813.086 1247.06 813.17 1258.12 812.709C1265.54 812.375 1273.43 811.643 1279.31 807.082C1284 803.442 1294.97 680.288 1286.45 677.171C1277.93 674.054 1268.77 673.259 1259.72 672.506C1239.45 670.791 1220.37 669.431 1200.41 674.954Z" fill="#505F98"/>
<path d="M1264.23 930.291C1263.14 944.255 1260.55 995 1260.55 995L1253.94 994.77C1249.41 970.39 1256.7 942.732 1253.94 910.899C1252.29 891.465 1244.6 853.996 1239.56 853.746C1241.07 841.221 1249.53 843.1 1249.53 843.1C1255.69 852.294 1261 862.026 1265.4 872.178C1270.44 885.37 1265.34 916.263 1264.23 930.291Z" fill="url(#paint34_linear_815_5)"/>
<path d="M1139.87 996.024C1138.84 996.786 1138.06 997.83 1137.62 999.025C1137.39 1000.01 1137.48 1001.04 1137.89 1001.97C1139.06 1004.33 1141.27 1006.02 1143.88 1006.55C1146.45 1007.04 1149.09 1007.13 1151.69 1006.82L1160.04 1006.26C1162.16 1006.21 1164.26 1005.87 1166.29 1005.26C1168.32 1004.63 1170 1003.2 1170.92 1001.31C1171.41 999.916 1171.6 998.438 1171.48 996.969C1171.48 990.164 1169.06 984.634 1161.52 986.299C1153.61 987.765 1146.18 991.102 1139.87 996.024V996.024Z" fill="#505F98"/>
<path d="M1278.41 999.063C1279.36 999.759 1280.08 1000.71 1280.48 1001.8C1280.69 1002.68 1280.61 1003.61 1280.24 1004.45C1279.18 1006.58 1277.15 1008.11 1274.76 1008.58C1272.4 1009.04 1269.98 1009.12 1267.6 1008.83L1260.02 1008.33C1258.1 1008.28 1256.19 1007.98 1254.34 1007.43C1252.49 1006.86 1250.96 1005.57 1250.12 1003.85C1249.68 1002.59 1249.5 1001.26 1249.6 999.932C1249.6 993.785 1251.78 988.72 1258.72 990.288C1265.91 991.619 1272.67 994.63 1278.41 999.063V999.063Z" fill="#505F98"/>
<path d="M1287.6 677C1287.6 677 1320.31 696.163 1330.14 720.389C1339.96 744.614 1297.96 803 1297.96 803L1288.97 793.814C1288.97 793.814 1310.9 749.759 1307.51 738.74C1304.12 727.721 1290.84 717.452 1290.84 717.452L1287.6 677Z" fill="#505F98"/>
<path d="M1194.53 714.859C1194.53 714.859 1149.05 735.24 1130.56 725.238C1112.08 715.237 1131.11 665 1131.11 665L1143.49 669.202C1143.49 669.202 1133.14 694.815 1144.98 698.618C1156.81 702.421 1192.27 677.438 1192.27 677.438L1194.53 714.859Z" fill="#505F98"/>
<path d="M1280.17 801.976C1278.86 802.826 1277.8 803.968 1277.09 805.297C1276.66 806.425 1276.5 807.629 1276.64 808.819C1276.56 811.709 1277.87 814.479 1280.22 816.367C1281.86 817.25 1283.71 817.76 1285.61 817.857C1286.77 818.048 1287.96 818.048 1289.13 817.857C1290.31 817.646 1291.3 816.888 1291.76 815.844C1291.91 815.183 1291.98 814.507 1291.95 813.831C1292.1 810.51 1294.61 807.793 1296.68 805.076C1297.18 804.551 1297.5 803.9 1297.6 803.204C1297.59 802.434 1297.3 801.69 1296.78 801.091C1295.38 799.199 1291.91 795.717 1289.13 796.018C1286.34 796.32 1282.33 800.326 1280.17 801.976Z" fill="#F4AD7D"/>
<path d="M1151.29 657.435C1151.88 656.611 1152.29 655.679 1152.48 654.698C1152.63 653.683 1152.09 652.687 1151.14 652.211C1149.62 651.647 1147.82 653.13 1146.33 652.504C1145.82 652.235 1145.4 651.846 1145.1 651.375C1143.33 648.945 1142.32 646.093 1142.17 643.143C1142.26 641.571 1142.11 639.995 1141.73 638.463C1141.29 636.886 1139.71 635.849 1138 636.018C1136.59 636.331 1135.8 637.689 1134.92 638.776C1134.04 639.863 1132.29 641.158 1131.14 642.516C1129.19 645.307 1128.08 648.55 1127.91 651.898C1127.3 656.077 1126.9 660.861 1129.98 663.87C1132.35 666.189 1139.58 668.927 1142.9 667.694C1146.57 666.315 1149.45 660.444 1151.29 657.435Z" fill="#F4AD7D"/>
</g>
<defs>
<linearGradient id="paint0_linear_815_5" x1="951.11" y1="571.166" x2="1015.86" y2="442.6" gradientUnits="userSpaceOnUse">
<stop stop-color="#010101" stop-opacity="0.01"/>
<stop offset="0.95" stop-color="#010101"/>
</linearGradient>
<linearGradient id="paint1_linear_815_5" x1="1006.27" y1="567.365" x2="1099.12" y2="385.775" gradientUnits="userSpaceOnUse">
<stop stop-color="#010101" stop-opacity="0.01"/>
<stop offset="0.95" stop-color="#010101"/>
</linearGradient>
<linearGradient id="paint2_linear_815_5" x1="1126.25" y1="576.092" x2="1263.61" y2="265.948" gradientUnits="userSpaceOnUse">
<stop stop-color="#010101" stop-opacity="0.01"/>
<stop offset="0.95" stop-color="#010101"/>
</linearGradient>
<linearGradient id="paint3_linear_815_5" x1="1254.09" y1="592.583" x2="1459.02" y2="145.179" gradientUnits="userSpaceOnUse">
<stop stop-color="#010101" stop-opacity="0.01"/>
<stop offset="0.36" stop-color="#010101" stop-opacity="0.36"/>
<stop offset="0.95" stop-color="#010101"/>
</linearGradient>
<linearGradient id="paint4_linear_815_5" x1="1105.43" y1="487.565" x2="1222.59" y2="245.969" gradientUnits="userSpaceOnUse">
<stop stop-color="white" stop-opacity="0.01"/>
<stop offset="0.07" stop-color="white" stop-opacity="0.22"/>
<stop offset="0.16" stop-color="white" stop-opacity="0.45"/>
<stop offset="0.25" stop-color="white" stop-opacity="0.65"/>
<stop offset="0.33" stop-color="white" stop-opacity="0.8"/>
<stop offset="0.4" stop-color="white" stop-opacity="0.91"/>
<stop offset="0.46" stop-color="white" stop-opacity="0.98"/>
<stop offset="0.51" stop-color="white"/>
</linearGradient>
<linearGradient id="paint5_linear_815_5" x1="1027.36" y1="434.445" x2="1091.55" y2="298.555" gradientUnits="userSpaceOnUse">
<stop stop-color="white" stop-opacity="0.01"/>
<stop offset="0.07" stop-color="white" stop-opacity="0.22"/>
<stop offset="0.16" stop-color="white" stop-opacity="0.45"/>
<stop offset="0.25" stop-color="white" stop-opacity="0.65"/>
<stop offset="0.33" stop-color="white" stop-opacity="0.8"/>
<stop offset="0.4" stop-color="white" stop-opacity="0.91"/>
<stop offset="0.46" stop-color="white" stop-opacity="0.98"/>
<stop offset="0.51" stop-color="white"/>
</linearGradient>
<linearGradient id="paint6_linear_815_5" x1="1332.68" y1="897.322" x2="1343.1" y2="770.584" gradientUnits="userSpaceOnUse">
<stop stop-color="#010101" stop-opacity="0.01"/>
<stop offset="0.95" stop-color="#010101"/>
</linearGradient>
<linearGradient id="paint7_linear_815_5" x1="930.967" y1="434.517" x2="928.252" y2="884.071" gradientUnits="userSpaceOnUse">
<stop stop-color="white" stop-opacity="0.01"/>
<stop offset="0.07" stop-color="white" stop-opacity="0.22"/>
<stop offset="0.16" stop-color="white" stop-opacity="0.45"/>
<stop offset="0.25" stop-color="white" stop-opacity="0.65"/>
<stop offset="0.33" stop-color="white" stop-opacity="0.8"/>
<stop offset="0.4" stop-color="white" stop-opacity="0.91"/>
<stop offset="0.46" stop-color="white" stop-opacity="0.98"/>
<stop offset="0.51" stop-color="white"/>
</linearGradient>
<linearGradient id="paint8_linear_815_5" x1="677.313" y1="872.073" x2="677.413" y2="1014.31" gradientUnits="userSpaceOnUse">
<stop stop-color="#010101" stop-opacity="0.01"/>
<stop offset="0.95" stop-color="#010101"/>
</linearGradient>
<linearGradient id="paint9_linear_815_5" x1="1829.73" y1="617.966" x2="1863.91" y2="210.855" gradientUnits="userSpaceOnUse">
<stop stop-color="white" stop-opacity="0.01"/>
<stop offset="0.07" stop-color="white" stop-opacity="0.22"/>
<stop offset="0.16" stop-color="white" stop-opacity="0.45"/>
<stop offset="0.25" stop-color="white" stop-opacity="0.65"/>
<stop offset="0.33" stop-color="white" stop-opacity="0.8"/>
<stop offset="0.4" stop-color="white" stop-opacity="0.91"/>
<stop offset="0.46" stop-color="white" stop-opacity="0.98"/>
<stop offset="0.51" stop-color="white"/>
</linearGradient>
<linearGradient id="paint10_linear_815_5" x1="1002.84" y1="507.87" x2="1140.85" y2="876.142" gradientUnits="userSpaceOnUse">
<stop stop-color="white" stop-opacity="0.01"/>
<stop offset="0.07" stop-color="white" stop-opacity="0.22"/>
<stop offset="0.16" stop-color="white" stop-opacity="0.45"/>
<stop offset="0.25" stop-color="white" stop-opacity="0.65"/>
<stop offset="0.33" stop-color="white" stop-opacity="0.8"/>
<stop offset="0.4" stop-color="white" stop-opacity="0.91"/>
<stop offset="0.46" stop-color="white" stop-opacity="0.98"/>
<stop offset="0.51" stop-color="white"/>
</linearGradient>
<linearGradient id="paint11_linear_815_5" x1="1106.38" y1="530.99" x2="1103.05" y2="813.698" gradientUnits="userSpaceOnUse">
<stop stop-color="white" stop-opacity="0.01"/>
<stop offset="0.07" stop-color="white" stop-opacity="0.22"/>
<stop offset="0.16" stop-color="white" stop-opacity="0.45"/>
<stop offset="0.25" stop-color="white" stop-opacity="0.65"/>
<stop offset="0.33" stop-color="white" stop-opacity="0.8"/>
<stop offset="0.4" stop-color="white" stop-opacity="0.91"/>
<stop offset="0.46" stop-color="white" stop-opacity="0.98"/>
<stop offset="0.51" stop-color="white"/>
</linearGradient>
<linearGradient id="paint12_linear_815_5" x1="1422.21" y1="722.704" x2="1441.4" y2="144.785" gradientUnits="userSpaceOnUse">
<stop stop-color="#010101" stop-opacity="0.01"/>
<stop offset="0.95" stop-color="#010101"/>
</linearGradient>
<linearGradient id="paint13_linear_815_5" x1="1421.36" y1="723.045" x2="1440.55" y2="145.125" gradientUnits="userSpaceOnUse">
<stop stop-color="#010101" stop-opacity="0.01"/>
<stop offset="0.95" stop-color="#010101"/>
</linearGradient>
<linearGradient id="paint14_linear_815_5" x1="1327.18" y1="720.354" x2="1346.39" y2="142.435" gradientUnits="userSpaceOnUse">
<stop stop-color="#010101" stop-opacity="0.01"/>
<stop offset="0.95" stop-color="#010101"/>
</linearGradient>
<linearGradient id="paint15_linear_815_5" x1="1326.33" y1="720.694" x2="1345.54" y2="142.776" gradientUnits="userSpaceOnUse">
<stop stop-color="#010101" stop-opacity="0.01"/>
<stop offset="0.95" stop-color="#010101"/>
</linearGradient>
<linearGradient id="paint16_linear_815_5" x1="1420.42" y1="724.545" x2="1439.64" y2="146.627" gradientUnits="userSpaceOnUse">
<stop stop-color="#010101" stop-opacity="0.01"/>
<stop offset="0.95" stop-color="#010101"/>
</linearGradient>
<linearGradient id="paint17_linear_815_5" x1="1326.39" y1="722.236" x2="1345.58" y2="144.317" gradientUnits="userSpaceOnUse">
<stop stop-color="#010101" stop-opacity="0.01"/>
<stop offset="0.95" stop-color="#010101"/>
</linearGradient>
<linearGradient id="paint18_linear_815_5" x1="1374.38" y1="723.396" x2="1393.6" y2="145.499" gradientUnits="userSpaceOnUse">
<stop stop-color="#010101" stop-opacity="0.01"/>
<stop offset="0.95" stop-color="#010101"/>
</linearGradient>
<linearGradient id="paint19_linear_815_5" x1="1376.2" y1="720.843" x2="1395.41" y2="142.925" gradientUnits="userSpaceOnUse">
<stop stop-color="#010101" stop-opacity="0.01"/>
<stop offset="0.95" stop-color="#010101"/>
</linearGradient>
<linearGradient id="paint20_linear_815_5" x1="1031.12" y1="735.399" x2="1263.35" y2="952.094" gradientUnits="userSpaceOnUse">
<stop stop-color="white" stop-opacity="0.01"/>
<stop offset="0.07" stop-color="white" stop-opacity="0.22"/>
<stop offset="0.16" stop-color="white" stop-opacity="0.45"/>
<stop offset="0.25" stop-color="white" stop-opacity="0.65"/>
<stop offset="0.33" stop-color="white" stop-opacity="0.8"/>
<stop offset="0.4" stop-color="white" stop-opacity="0.91"/>
<stop offset="0.46" stop-color="white" stop-opacity="0.98"/>
<stop offset="0.51" stop-color="white"/>
</linearGradient>
<linearGradient id="paint21_linear_815_5" x1="1379.99" y1="515.864" x2="1378.2" y2="651.026" gradientUnits="userSpaceOnUse">
<stop stop-color="white" stop-opacity="0.01"/>
<stop offset="0.07" stop-color="white" stop-opacity="0.22"/>
<stop offset="0.16" stop-color="white" stop-opacity="0.45"/>
<stop offset="0.25" stop-color="white" stop-opacity="0.65"/>
<stop offset="0.33" stop-color="white" stop-opacity="0.8"/>
<stop offset="0.4" stop-color="white" stop-opacity="0.91"/>
<stop offset="0.46" stop-color="white" stop-opacity="0.98"/>
<stop offset="0.51" stop-color="white"/>
</linearGradient>
<linearGradient id="paint22_linear_815_5" x1="1379.99" y1="625.864" x2="1378.2" y2="761.026" gradientUnits="userSpaceOnUse">
<stop stop-color="white" stop-opacity="0.01"/>
<stop offset="0.07" stop-color="white" stop-opacity="0.22"/>
<stop offset="0.16" stop-color="white" stop-opacity="0.45"/>
<stop offset="0.25" stop-color="white" stop-opacity="0.65"/>
<stop offset="0.33" stop-color="white" stop-opacity="0.8"/>
<stop offset="0.4" stop-color="white" stop-opacity="0.91"/>
<stop offset="0.46" stop-color="white" stop-opacity="0.98"/>
<stop offset="0.51" stop-color="white"/>
</linearGradient>
<linearGradient id="paint23_linear_815_5" x1="1016.14" y1="551.281" x2="1016.13" y2="569.481" gradientUnits="userSpaceOnUse">
<stop stop-color="white" stop-opacity="0.01"/>
<stop offset="0.07" stop-color="white" stop-opacity="0.22"/>
<stop offset="0.16" stop-color="white" stop-opacity="0.45"/>
<stop offset="0.25" stop-color="white" stop-opacity="0.65"/>
<stop offset="0.33" stop-color="white" stop-opacity="0.8"/>
<stop offset="0.4" stop-color="white" stop-opacity="0.91"/>
<stop offset="0.46" stop-color="white" stop-opacity="0.98"/>
<stop offset="0.51" stop-color="white"/>
</linearGradient>
<linearGradient id="paint24_linear_815_5" x1="935.444" y1="604.052" x2="1048.87" y2="514.635" gradientUnits="userSpaceOnUse">
<stop stop-color="#010101" stop-opacity="0.01"/>
<stop offset="0.95" stop-color="#010101"/>
</linearGradient>
<linearGradient id="paint25_linear_815_5" x1="985.284" y1="623.988" x2="1146.56" y2="498.866" gradientUnits="userSpaceOnUse">
<stop stop-color="#010101" stop-opacity="0.01"/>
<stop offset="0.95" stop-color="#010101"/>
</linearGradient>
<linearGradient id="paint26_linear_815_5" x1="1090.23" y1="682.751" x2="1346.39" y2="460.027" gradientUnits="userSpaceOnUse">
<stop stop-color="#010101" stop-opacity="0.01"/>
<stop offset="0.95" stop-color="#010101"/>
</linearGradient>
<linearGradient id="paint27_linear_815_5" x1="1198.99" y1="751.865" x2="1574.67" y2="433.45" gradientUnits="userSpaceOnUse">
<stop stop-color="#010101" stop-opacity="0.01"/>
<stop offset="0.36" stop-color="#010101" stop-opacity="0.36"/>
<stop offset="0.95" stop-color="#010101"/>
</linearGradient>
<linearGradient id="paint28_linear_815_5" x1="1047.25" y1="514.751" x2="1230.18" y2="383.322" gradientUnits="userSpaceOnUse">
<stop stop-color="white" stop-opacity="0.01"/>
<stop offset="0.07" stop-color="white" stop-opacity="0.22"/>
<stop offset="0.16" stop-color="white" stop-opacity="0.45"/>
<stop offset="0.25" stop-color="white" stop-opacity="0.65"/>
<stop offset="0.33" stop-color="white" stop-opacity="0.8"/>
<stop offset="0.4" stop-color="white" stop-opacity="0.91"/>
<stop offset="0.46" stop-color="white" stop-opacity="0.98"/>
<stop offset="0.51" stop-color="white"/>
</linearGradient>
<linearGradient id="paint29_linear_815_5" x1="1060.86" y1="512.517" x2="1176.72" y2="416.658" gradientUnits="userSpaceOnUse">
<stop stop-color="white" stop-opacity="0.01"/>
<stop offset="0.07" stop-color="white" stop-opacity="0.22"/>
<stop offset="0.16" stop-color="white" stop-opacity="0.45"/>
<stop offset="0.25" stop-color="white" stop-opacity="0.65"/>
<stop offset="0.33" stop-color="white" stop-opacity="0.8"/>
<stop offset="0.4" stop-color="white" stop-opacity="0.91"/>
<stop offset="0.46" stop-color="white" stop-opacity="0.98"/>
<stop offset="0.51" stop-color="white"/>
</linearGradient>
<linearGradient id="paint30_linear_815_5" x1="926.445" y1="678.745" x2="964.63" y2="678.767" gradientUnits="userSpaceOnUse">
<stop stop-color="white" stop-opacity="0.01"/>
<stop offset="0.07" stop-color="white" stop-opacity="0.22"/>
<stop offset="0.16" stop-color="white" stop-opacity="0.45"/>
<stop offset="0.25" stop-color="white" stop-opacity="0.65"/>
<stop offset="0.33" stop-color="white" stop-opacity="0.8"/>
<stop offset="0.4" stop-color="white" stop-opacity="0.91"/>
<stop offset="0.46" stop-color="white" stop-opacity="0.98"/>
<stop offset="0.51" stop-color="white"/>
</linearGradient>
<linearGradient id="paint31_linear_815_5" x1="853.154" y1="581.2" x2="864.805" y2="619.932" gradientUnits="userSpaceOnUse">
<stop stop-color="#010101" stop-opacity="0.01"/>
<stop offset="0.95" stop-color="#010101"/>
</linearGradient>
<linearGradient id="paint32_linear_815_5" x1="877.951" y1="729.933" x2="978.854" y2="731.976" gradientUnits="userSpaceOnUse">
<stop stop-color="#010101" stop-opacity="0.01"/>
<stop offset="0.95" stop-color="#010101"/>
</linearGradient>
<linearGradient id="paint33_linear_815_5" x1="1280.72" y1="887.512" x2="1184.63" y2="722.732" gradientUnits="userSpaceOnUse">
<stop stop-color="#010101" stop-opacity="0.01"/>
<stop offset="0.95" stop-color="#010101"/>
</linearGradient>
<linearGradient id="paint34_linear_815_5" x1="1281.74" y1="425.892" x2="1108.86" y2="430.761" gradientUnits="userSpaceOnUse">
<stop stop-color="#010101" stop-opacity="0.01"/>
<stop offset="0.95" stop-color="#010101"/>
</linearGradient>
<clipPath id="clip0_815_5">
<rect width="1440" height="1123" fill="white"/>
</clipPath>
</defs>
</svg>
