<svg width="18" height="18" viewBox="0 0 18 18" fill="none" xmlns="http://www.w3.org/2000/svg">
<rect width="18" height="18" rx="4" fill="#189FFB"/>
<path d="M7.15708 12.9555L3.41725 9.44456C3.22452 9.26363 3.22452 8.97049 3.41725 8.78955L4.41801 7.85006C4.61074 7.66912 4.923 7.66912 5.11573 7.85006L8.85555 11.361C9.04828 11.5419 9.04828 11.835 8.85555 12.016L7.8548 12.9555C7.66207 13.1362 7.34981 13.1362 7.15708 12.9555Z" fill="white"/>
<path d="M6.15632 11.361L12.8842 5.04488C13.077 4.86395 13.3892 4.86395 13.5819 5.04488L14.5827 5.98438C14.7754 6.16531 14.7754 6.45845 14.5827 6.63939L7.8548 12.9555C7.66207 13.1362 7.34981 13.1362 7.15708 12.9555L6.15632 12.016C5.96384 11.835 5.96384 11.5419 6.15632 11.361Z" fill="white"/>
</svg>
